<mxfile host="Electron" agent="Mozilla/5.0 (Windows NT 10.0; Win64; x64) AppleWebKit/537.36 (KHTML, like Gecko) draw.io/24.7.8 Chrome/128.0.6613.36 Electron/32.0.1 Safari/537.36" version="24.7.8">
  <diagram name="Page-1" id="fGviGUTjOtxy7mZAjL0T">
    <mxGraphModel dx="1232" dy="1187" grid="1" gridSize="10" guides="1" tooltips="1" connect="1" arrows="1" fold="1" page="1" pageScale="1" pageWidth="850" pageHeight="1100" math="0" shadow="0">
      <root>
        <mxCell id="0" />
        <mxCell id="1" parent="0" />
        <mxCell id="cX_iuhJoMYRa6wr2hOlE-1" value="{noop}master@123" style="text;html=1;align=center;verticalAlign=middle;whiteSpace=wrap;rounded=0;fontSize=28;" vertex="1" parent="1">
          <mxGeometry x="340" y="590" width="260" height="40" as="geometry" />
        </mxCell>
        <mxCell id="cX_iuhJoMYRa6wr2hOlE-2" value="&amp;nbsp;The encoding&lt;div&gt;algorithm id&lt;/div&gt;" style="rounded=0;whiteSpace=wrap;html=1;fillColor=#dae8fc;strokeColor=#6c8ebf;" vertex="1" parent="1">
          <mxGeometry x="280" y="470" width="120" height="60" as="geometry" />
        </mxCell>
        <mxCell id="cX_iuhJoMYRa6wr2hOlE-3" value="&amp;nbsp;The encoding&lt;div&gt;algorithm id&lt;/div&gt;" style="rounded=0;whiteSpace=wrap;html=1;fillColor=#dae8fc;strokeColor=#6c8ebf;" vertex="1" parent="1">
          <mxGeometry x="280" y="680" width="120" height="60" as="geometry" />
        </mxCell>
        <mxCell id="cX_iuhJoMYRa6wr2hOlE-12" style="edgeStyle=orthogonalEdgeStyle;rounded=0;orthogonalLoop=1;jettySize=auto;html=1;" edge="1" parent="1" source="cX_iuhJoMYRa6wr2hOlE-4" target="cX_iuhJoMYRa6wr2hOlE-11">
          <mxGeometry relative="1" as="geometry" />
        </mxCell>
        <mxCell id="cX_iuhJoMYRa6wr2hOlE-4" value="The password" style="rounded=0;whiteSpace=wrap;html=1;fillColor=#d5e8d4;strokeColor=#82b366;" vertex="1" parent="1">
          <mxGeometry x="510" y="470" width="120" height="60" as="geometry" />
        </mxCell>
        <mxCell id="cX_iuhJoMYRa6wr2hOlE-8" style="edgeStyle=orthogonalEdgeStyle;rounded=0;orthogonalLoop=1;jettySize=auto;html=1;exitX=0.5;exitY=0;exitDx=0;exitDy=0;entryX=0.5;entryY=1;entryDx=0;entryDy=0;" edge="1" parent="1" source="cX_iuhJoMYRa6wr2hOlE-3" target="cX_iuhJoMYRa6wr2hOlE-13">
          <mxGeometry relative="1" as="geometry" />
        </mxCell>
        <mxCell id="cX_iuhJoMYRa6wr2hOlE-9" style="edgeStyle=orthogonalEdgeStyle;rounded=0;orthogonalLoop=1;jettySize=auto;html=1;entryX=0.5;entryY=0;entryDx=0;entryDy=0;" edge="1" parent="1" source="cX_iuhJoMYRa6wr2hOlE-2" target="cX_iuhJoMYRa6wr2hOlE-13">
          <mxGeometry relative="1" as="geometry" />
        </mxCell>
        <mxCell id="cX_iuhJoMYRa6wr2hOlE-11" value="" style="rounded=0;whiteSpace=wrap;html=1;fillColor=none;strokeColor=#00CC00;strokeWidth=2;" vertex="1" parent="1">
          <mxGeometry x="430" y="595" width="162" height="35" as="geometry" />
        </mxCell>
        <mxCell id="cX_iuhJoMYRa6wr2hOlE-13" value="" style="rounded=0;whiteSpace=wrap;html=1;fillColor=none;strokeColor=#0066CC;strokeWidth=2;" vertex="1" parent="1">
          <mxGeometry x="350" y="595" width="80" height="35" as="geometry" />
        </mxCell>
      </root>
    </mxGraphModel>
  </diagram>
</mxfile>
